<svg xmlns="http://www.w3.org/2000/svg" viewBox="0 0 32 32">
  <circle cx="16" cy="16" r="14" fill="#e8f5e9"/>
  <path d="M16 6c-2 4-7 7-7 13a7 7 0 0014 0c0-6-5-9-7-13z" fill="#66bb6a" opacity="0.85"/>
  <path d="M16 9c-1.5 3-5 5.5-5 10a5 5 0 0010 0c0-4.5-3.5-7-5-10z" fill="#81c784"/>
  <line x1="16" y1="11" x2="16" y2="24" stroke="#43a047" stroke-width="1.2" stroke-linecap="round"/>
  <path d="M16 17c2-1.5 3.5-1.5 4.5-0.5" stroke="#43a047" stroke-width="1" stroke-linecap="round" fill="none"/>
  <path d="M16 21c-2-1.5-3.5-1.5-4.5-0.5" stroke="#43a047" stroke-width="1" stroke-linecap="round" fill="none"/>
</svg>
